<?xml version="1.0" standalone="no"?>
<!DOCTYPE svg PUBLIC "-//W3C//DTD SVG 20010904//EN"
 "http://www.w3.org/TR/2001/REC-SVG-20010904/DTD/svg10.dtd">
<svg version="1.0" xmlns="http://www.w3.org/2000/svg"
 width="300.000000pt" height="243.000000pt" viewBox="0 0 300.000000 243.000000"
 preserveAspectRatio="xMidYMid meet">

<g transform="translate(0.000000,243.000000) scale(0.100000,-0.100000)"
fill="#000000" stroke="none">
<path d="M1236 2326 c-180 -67 -223 -303 -76 -428 l42 -36 -22 -105 -23 -104
-76 -6 c-193 -15 -402 -124 -527 -275 -67 -82 -126 -195 -156 -298 -32 -112
-32 -296 0 -408 64 -223 211 -398 417 -497 105 -51 179 -69 300 -76 310 -17
602 154 735 432 63 131 80 206 80 347 0 88 -5 132 -23 198 -24 84 -70 188
-110 243 -23 33 -27 27 75 110 l68 55 81 -42 c80 -40 83 -41 188 -41 99 0 111
2 174 32 89 42 168 121 210 210 30 63 32 76 32 173 0 97 -2 110 -32 172 -74
157 -215 248 -384 248 -132 0 -254 -60 -335 -163 -28 -36 -41 -46 -58 -41 -11
2 -70 17 -131 32 l-110 27 -7 40 c-14 86 -60 150 -132 187 -52 26 -148 33
-200 14z m161 -116 c47 -28 67 -65 67 -121 0 -83 -62 -144 -144 -144 -60 0
-96 24 -128 86 -24 47 -23 78 5 132 32 63 134 87 200 47z m939 -124 c111 -51
174 -151 174 -276 0 -91 -20 -139 -86 -210 -145 -155 -401 -110 -494 87 -96
205 75 449 300 428 30 -3 78 -16 106 -29z m-681 -131 c39 -9 86 -20 105 -25
l35 -9 0 -113 c0 -108 2 -116 33 -177 17 -35 32 -67 32 -71 0 -8 -145 -130
-154 -130 -3 0 -34 23 -68 51 -78 62 -200 123 -295 146 -84 19 -82 15 -55 133
l18 75 50 6 c67 8 104 29 155 88 26 29 50 48 59 46 8 -3 47 -12 85 -20z m-395
-429 c104 -19 178 -49 265 -107 98 -66 166 -144 220 -254 98 -200 98 -390 -1
-593 -145 -297 -496 -440 -812 -331 -291 100 -486 413 -442 711 43 298 254
519 545 573 91 17 134 17 225 1z"/>
<path d="M590 980 c0 -29 2 -30 45 -30 l45 0 0 -115 0 -115 38 0 37 0 0 112 0
113 48 0 47 0 53 -115 c47 -102 56 -115 80 -118 26 -3 31 3 83 115 31 65 62
133 69 151 l14 32 -37 0 -38 0 -38 -92 c-22 -51 -42 -97 -46 -101 -4 -4 -26
38 -49 93 l-43 100 -154 0 -154 0 0 -30z"/>
<path d="M1201 993 c-45 -23 -75 -89 -68 -151 9 -84 74 -136 159 -129 62 5 96
29 120 84 27 62 18 122 -26 171 -30 32 -39 36 -92 39 -42 3 -69 -1 -93 -14z
m132 -65 c11 -13 17 -37 17 -69 0 -60 -24 -89 -74 -89 -46 0 -66 29 -66 96 0
45 4 56 27 74 32 25 69 20 96 -12z"/>
<path d="M1540 1003 c-28 -10 -70 -56 -81 -90 -6 -20 -8 -54 -4 -79 12 -85 85
-134 178 -120 54 8 73 26 58 54 -9 17 -15 18 -49 9 -74 -20 -112 11 -112 91 0
56 23 82 71 82 22 0 49 -5 59 -10 15 -8 21 -6 30 9 15 29 13 37 -15 49 -26 12
-108 15 -135 5z"/>
</g>
</svg>
