<?xml version="1.0" encoding="UTF-8"?>
<!DOCTYPE svg PUBLIC "-//W3C//DTD SVG 1.1//EN" "http://www.w3.org/Graphics/SVG/1.1/DTD/svg11.dtd">
<svg xmlns="http://www.w3.org/2000/svg" version="1.1" width="339px" height="302px" style="shape-rendering:geometricPrecision; text-rendering:geometricPrecision; image-rendering:optimizeQuality; fill-rule:evenodd; clip-rule:evenodd" xmlns:xlink="http://www.w3.org/1999/xlink">
<g><path style="opacity:1" fill="#fefefe" d="M -0.5,-0.5 C 112.5,-0.5 225.5,-0.5 338.5,-0.5C 338.5,100.167 338.5,200.833 338.5,301.5C 225.5,301.5 112.5,301.5 -0.5,301.5C -0.5,200.833 -0.5,100.167 -0.5,-0.5 Z"/></g>
<g><path style="opacity:1" fill="#e2e2e2" d="M 44.5,10.5 C 81.6667,11.1636 118.833,11.8303 156,12.5C 200.517,11.625 245.35,11.2917 290.5,11.5C 290.833,11.6667 291.167,11.8333 291.5,12C 290.718,14.7405 290.218,17.5738 290,20.5C 289.503,18.1902 289.337,15.8568 289.5,13.5C 207.459,13.1696 125.459,13.5029 43.5,14.5C 43.1667,14.1667 42.8333,13.8333 42.5,13.5C 43.6119,12.7348 44.2786,11.7348 44.5,10.5 Z"/></g>
<g><path style="opacity:1" fill="#dcdcdc" d="M 331.5,34.5 C 333.384,34.7118 334.717,35.7118 335.5,37.5C 334.169,73.6964 334.169,109.863 335.5,146C 327.95,145.622 320.45,145.788 313,146.5C 312.5,146 312,145.5 311.5,145C 318.747,144.815 325.913,144.315 333,143.5C 333.833,123.825 333.666,104.158 332.5,84.5C 331.5,84.8333 330.833,85.5 330.5,86.5C 330.646,88.8057 330.979,91.139 331.5,93.5C 329.104,96.1662 326.771,95.9995 324.5,93C 325.328,92.0853 326.328,91.4186 327.5,91C 323.833,90 323.5,88.3333 326.5,86C 324.201,83.7007 324.867,82.2007 328.5,81.5C 330.056,82.5471 331.723,83.2137 333.5,83.5C 333.5,67.8333 333.5,52.1667 333.5,36.5C 326.159,36.6663 318.826,36.4997 311.5,36C 318.346,35.8283 325.013,35.3283 331.5,34.5 Z"/></g>
<g><path style="opacity:1" fill="#dcdcdc" d="M 44.5,75.5 C 44.5,76.5 44.5,77.5 44.5,78.5C 42.8333,78.5 41.1667,78.5 39.5,78.5C 39.5,96.1667 39.5,113.833 39.5,131.5C 41.2915,131.634 42.9582,131.301 44.5,130.5C 44.5,131.833 44.5,133.167 44.5,134.5C 45.8333,134.5 47.1667,134.5 48.5,134.5C 47.791,135.404 46.791,135.737 45.5,135.5C 45.5,138.5 45.5,141.5 45.5,144.5C 56.0821,144.18 66.5821,144.513 77,145.5C 150.43,144.668 223.93,144.168 297.5,144C 296.425,108.906 296.425,72.9063 297.5,36C 296.584,35.6258 295.75,35.1258 295,34.5C 289.57,34.6937 284.07,34.6937 278.5,34.5C 277.833,39.9853 277.167,45.3187 276.5,50.5C 275.791,49.596 274.791,49.2627 273.5,49.5C 275.133,45.0591 276.133,40.3924 276.5,35.5C 276.5,34.8333 276.5,34.1667 276.5,33.5C 283.755,33.1868 290.921,33.5201 298,34.5C 298.5,48.496 298.667,62.496 298.5,76.5C 300.167,76.5 301.833,76.5 303.5,76.5C 302.167,60.8333 302.167,45.1667 303.5,29.5C 300.203,29.6713 299.869,29.0046 302.5,27.5C 303.086,27.7093 303.586,28.0426 304,28.5C 304.832,118.07 304.665,207.57 303.5,297C 215.167,297.667 126.833,297.667 38.5,297C 38.242,280.706 37.9086,264.206 37.5,247.5C 29.0066,248.329 20.6733,248.663 12.5,248.5C 10.5539,246.956 10.0539,244.956 11,242.5C 11.4828,243.448 11.6495,244.448 11.5,245.5C 20.5062,245.666 29.5062,245.5 38.5,245C 37.1667,239 37.1667,233 38.5,227C 37.7511,225.266 37.2511,223.433 37,221.5C 35.7318,221.384 34.3985,221.051 33,220.5C 31.5341,222.325 29.7008,222.825 27.5,222C 28.8333,221.333 30.1667,220.667 31.5,220C 29.7536,219.529 28.087,218.862 26.5,218C 29.5178,217.999 32.5178,218.499 35.5,219.5C 36.1667,219.167 36.8333,218.833 37.5,218.5C 37.7929,212.634 38.1262,206.801 38.5,201C 37.9294,198.389 37.0961,195.889 36,193.5C 28.473,193.887 20.8064,193.887 13,193.5C 11.9563,194.623 11.2896,195.956 11,197.5C 10.5065,195.866 10.3398,194.199 10.5,192.5C 19.5,192.5 28.5,192.5 37.5,192.5C 37.8338,172.668 37.8338,152.668 37.5,132.5C 1.5,131.833 1.5,131.167 37.5,130.5C 37.3663,124.746 37.6997,118.913 38.5,113C 37.7178,110.26 37.2178,107.426 37,104.5C 34.0288,105.495 31.0288,106.495 28,107.5C 27.5,107.167 27,106.833 26.5,106.5C 27.7287,105.719 29.062,105.219 30.5,105C 29.0072,103.844 29.1739,103.01 31,102.5C 33.0989,103.287 35.2655,103.62 37.5,103.5C 37.6465,95.1592 37.6465,86.8259 37.5,78.5C 28.8333,78.5 20.1667,78.5 11.5,78.5C 12.3635,80.8954 12.3635,83.2287 11.5,85.5C 10.5159,82.5719 10.1826,79.5719 10.5,76.5C 19.5,76.5 28.5,76.5 37.5,76.5C 37.2689,60.2579 37.6022,44.0913 38.5,28C 123.833,27.3333 209.167,27.3333 294.5,28C 294,28.5 293.5,29 293,29.5C 209.333,29.1667 125.667,28.8333 42,28.5C 41.586,28.9574 41.086,29.2907 40.5,29.5C 39.5006,45.1525 39.1673,60.8192 39.5,76.5C 41.2915,76.634 42.9582,76.3007 44.5,75.5 Z"/></g>
<g><path style="opacity:1" fill="#f1f1f1" d="M 296.5,290.5 C 296.5,244.5 296.5,198.5 296.5,152.5C 297.222,152.918 297.722,153.584 298,154.5C 298.335,147.363 298.501,140.03 298.5,132.5C 300.948,132.01 302.615,132.843 303.5,135C 302.579,154.794 302.579,174.461 303.5,194C 301.798,195.718 299.965,195.885 298,194.5C 297.333,195.5 297.333,196.5 298,197.5C 299.268,197.384 300.602,197.051 302,196.5C 302.991,197.43 303.491,198.596 303.5,200C 302.889,216.193 302.889,232.193 303.5,248C 301.423,248.192 299.423,248.692 297.5,249.5C 298.995,249.478 300.662,249.811 302.5,250.5C 303.022,251.607 303.355,252.774 303.5,254C 302.316,265.408 302.316,276.908 303.5,288.5C 303.291,289.086 302.957,289.586 302.5,290C 300.527,290.495 298.527,290.662 296.5,290.5 Z"/></g>
<g><path style="opacity:1" fill="#fdfdfd" d="M 177.5,180.5 C 177.807,174.86 177.807,169.027 177.5,163C 178,162.5 178.5,162 179,161.5C 184.667,161.833 190.333,162.167 196,162.5C 196.692,161.975 197.192,161.308 197.5,160.5C 190.833,159.833 184.167,159.167 177.5,158.5C 177.569,156.722 177.903,154.889 178.5,153C 194.497,152.5 210.497,152.333 226.5,152.5C 232.259,152.454 238.259,152.621 244.5,153C 245.01,158.589 245.01,163.922 244.5,169C 245.047,169.925 245.713,170.758 246.5,171.5C 247.496,165.202 247.83,158.868 247.5,152.5C 263.833,152.5 280.167,152.5 296.5,152.5C 296.5,198.5 296.5,244.5 296.5,290.5C 256.832,290.333 217.165,290.5 177.5,291C 219.167,291.333 260.833,291.667 302.5,292C 303.711,293.113 303.711,294.28 302.5,295.5C 214.836,296.5 127.169,296.833 39.5,296.5C 39.5,241.833 39.5,187.167 39.5,132.5C 40.8333,132.5 42.1667,132.5 43.5,132.5C 44.4036,185.048 44.4036,237.715 43.5,290.5C 86.1615,291.5 128.828,291.833 171.5,291.5C 171.5,254.833 171.5,218.167 171.5,181.5C 173.735,181.795 175.735,181.461 177.5,180.5 Z"/></g>
<g><path style="opacity:1" fill="#d7d7d7" d="M 218.5,189.5 C 218.5,189.833 218.5,190.167 218.5,190.5C 219.07,214.827 219.07,238.827 218.5,262.5C 229.833,262.5 241.167,262.5 252.5,262.5C 252.5,263.167 252.833,263.5 253.5,263.5C 241.765,264.829 229.931,264.829 218,263.5C 217.17,238.663 217.337,213.997 218.5,189.5 Z"/></g>
<g><path style="opacity:1" fill="#b9b9b9" d="M 256.5,240.5 C 263.833,240.5 271.167,240.5 278.5,240.5C 278.666,247.508 278.5,254.508 278,261.5C 270.921,262.48 263.755,262.813 256.5,262.5C 256.5,255.167 256.5,247.833 256.5,240.5 Z"/></g>
<g><path style="opacity:1" fill="#b6b6b6" d="M 195.5,240.5 C 202.5,240.5 209.5,240.5 216.5,240.5C 216.5,247.833 216.5,255.167 216.5,262.5C 209.5,262.5 202.5,262.5 195.5,262.5C 194.381,255.108 194.381,247.774 195.5,240.5 Z"/></g>
<g><path style="opacity:1" fill="#fcfcfc" d="M 257.5,241.5 C 263.425,241.192 269.259,241.525 275,242.5C 276.829,248.461 276.996,254.461 275.5,260.5C 269.5,260.5 263.5,260.5 257.5,260.5C 257.5,254.167 257.5,247.833 257.5,241.5 Z"/></g>
<g><path style="opacity:1" fill="#fdfdfd" d="M 200.5,241.5 C 205.5,241.5 210.5,241.5 215.5,241.5C 215.5,247.833 215.5,254.167 215.5,260.5C 209.5,260.5 203.5,260.5 197.5,260.5C 197.5,254.5 197.5,248.5 197.5,242.5C 198.791,242.737 199.791,242.404 200.5,241.5 Z"/></g>
<g><path style="opacity:1" fill="#aaaaaa" d="M 194.5,216.5 C 195.978,216.238 197.311,216.571 198.5,217.5C 196.179,223.689 195.845,230.023 197.5,236.5C 203.5,236.5 209.5,236.5 215.5,236.5C 215.334,229.825 215.5,223.158 216,216.5C 216.5,223.492 216.666,230.492 216.5,237.5C 209.5,237.5 202.5,237.5 195.5,237.5C 194.768,230.524 194.435,223.524 194.5,216.5 Z"/></g>
<g><path style="opacity:1" fill="#bbbbbb" d="M 257.5,215.5 C 264.53,215.522 271.53,215.855 278.5,216.5C 278.5,223.5 278.5,230.5 278.5,237.5C 271.167,237.5 263.833,237.5 256.5,237.5C 256.203,230.08 256.536,222.746 257.5,215.5 Z"/></g>
<g><path style="opacity:1" fill="#fcfcfc" d="M 257.5,217.5 C 263.176,217.334 268.843,217.501 274.5,218C 277.133,223.801 277.133,229.634 274.5,235.5C 268.872,236.495 263.206,236.829 257.5,236.5C 257.5,230.167 257.5,223.833 257.5,217.5 Z"/></g>
<g><path style="opacity:1" fill="#d2d2d2" d="M 257.5,191.5 C 257.5,191.833 257.5,192.167 257.5,192.5C 257.5,198.833 257.5,205.167 257.5,211.5C 263.176,211.666 268.843,211.499 274.5,211C 275.099,209.378 275.766,207.878 276.5,206.5C 276.205,208.735 276.539,210.735 277.5,212.5C 270.765,213.827 263.932,213.827 257,212.5C 256.179,205.321 256.345,198.321 257.5,191.5 Z"/></g>
<g><path style="opacity:1" fill="#afafaf" d="M 257.5,192.5 C 257.5,192.167 257.5,191.833 257.5,191.5C 264.5,191.5 271.5,191.5 278.5,191.5C 278.825,198.687 278.491,205.687 277.5,212.5C 276.539,210.735 276.205,208.735 276.5,206.5C 276.814,201.817 276.148,197.317 274.5,193C 268.843,192.501 263.176,192.334 257.5,192.5 Z"/></g>
<g><path style="opacity:1" fill="#a5a5a5" d="M 195.5,191.5 C 202.5,191.5 209.5,191.5 216.5,191.5C 216.666,198.508 216.5,205.508 216,212.5C 215.5,205.842 215.334,199.175 215.5,192.5C 209.824,192.334 204.157,192.501 198.5,193C 196.973,195.757 196.307,198.757 196.5,202C 196.039,205.84 197.039,209.173 199.5,212C 198.207,212.49 196.873,212.657 195.5,212.5C 194.167,205.5 194.167,198.5 195.5,191.5 Z"/></g>
<g><path style="opacity:1" fill="#fcfcfc" d="M 257.5,192.5 C 263.176,192.334 268.843,192.501 274.5,193C 276.148,197.317 276.814,201.817 276.5,206.5C 275.766,207.878 275.099,209.378 274.5,211C 268.843,211.499 263.176,211.666 257.5,211.5C 257.5,205.167 257.5,198.833 257.5,192.5 Z"/></g>
<g><path style="opacity:1" fill="#b8b8b8" d="M 218.5,190.5 C 218.5,190.167 218.5,189.833 218.5,189.5C 230.167,189.5 241.833,189.5 253.5,189.5C 253.5,214.167 253.5,238.833 253.5,263.5C 252.833,263.5 252.5,263.167 252.5,262.5C 252.5,238.5 252.5,214.5 252.5,190.5C 241.167,190.5 229.833,190.5 218.5,190.5 Z"/></g>
<g><path style="opacity:1" fill="#fefefe" d="M 218.5,190.5 C 229.833,190.5 241.167,190.5 252.5,190.5C 252.5,214.5 252.5,238.5 252.5,262.5C 241.167,262.5 229.833,262.5 218.5,262.5C 219.07,238.827 219.07,214.827 218.5,190.5 Z"/></g>
<g><path style="opacity:1" fill="#fdfdfd" d="M 93.5,152.5 C 99.2512,152.614 105.251,152.614 111.5,152.5C 111.472,154.582 112.139,156.416 113.5,158C 113.214,161.857 113.214,166.357 113.5,171.5C 114.209,165.77 114.542,159.436 114.5,152.5C 133.167,152.5 151.833,152.5 170.5,152.5C 170.335,155.85 170.502,159.183 171,162.5C 171.308,161.692 171.808,161.025 172.5,160.5C 173.425,161.641 174.259,161.641 175,160.5C 175.374,161.416 175.874,162.25 176.5,163C 175.234,168.233 175.234,173.399 176.5,178.5C 174.833,178.5 173.167,178.5 171.5,178.5C 170.475,205.823 170.142,243.156 170.5,290.5C 128.833,290.5 87.1667,290.5 45.5,290.5C 45.1828,245.157 44.8494,199.323 44.5,153C 45.2489,151.266 45.7489,149.433 46,147.5C 46.956,146.106 48.2894,145.439 50,145.5C 63.4669,145.967 77.3002,145.967 91.5,145.5C 92.1681,147.969 92.8347,150.302 93.5,152.5 Z"/></g>
<g><path style="opacity:1" fill="#7d7d7d" d="M 89.5,265.5 C 90.1667,265.5 90.5,265.833 90.5,266.5C 90.2065,270.437 90.5399,274.27 91.5,278C 95.3575,278.81 99.0242,278.643 102.5,277.5C 103.338,277.842 103.672,278.508 103.5,279.5C 98.8333,279.5 94.1667,279.5 89.5,279.5C 89.5,274.833 89.5,270.167 89.5,265.5 Z"/></g>
<g><path style="opacity:1" fill="#b8b8b8" d="M 73.5,264.5 C 78.1667,264.5 82.8333,264.5 87.5,264.5C 87.5,269.5 87.5,274.5 87.5,279.5C 82.5,279.5 77.5,279.5 72.5,279.5C 72.2213,274.405 72.5546,269.405 73.5,264.5 Z"/></g>
<g><path style="opacity:1" fill="#bebebe" d="M 89.5,265.5 C 93.9811,264.352 98.6478,264.185 103.5,265C 104.824,269.933 104.824,274.766 103.5,279.5C 103.672,278.508 103.338,277.842 102.5,277.5C 102.5,273.833 102.5,270.167 102.5,266.5C 98.5,266.5 94.5,266.5 90.5,266.5C 90.5,265.833 90.1667,265.5 89.5,265.5 Z"/></g>
<g><path style="opacity:1" fill="#fafafa" d="M 90.5,266.5 C 94.5,266.5 98.5,266.5 102.5,266.5C 102.5,270.167 102.5,273.833 102.5,277.5C 99.0242,278.643 95.3575,278.81 91.5,278C 90.5399,274.27 90.2065,270.437 90.5,266.5 Z"/></g>
<g><path style="opacity:1" fill="#fcfcfc" d="M 73.5,266.5 C 77.8333,266.5 82.1667,266.5 86.5,266.5C 86.5,270.167 86.5,273.833 86.5,277.5C 82.4862,277.666 78.4862,277.499 74.5,277C 73.5442,273.606 73.2108,270.106 73.5,266.5 Z"/></g>
<g><path style="opacity:1" fill="#b5b5b5" d="M 56.5,264.5 C 61.1785,264.334 65.8452,264.501 70.5,265C 71.4692,269.737 71.8025,274.57 71.5,279.5C 66.5,279.5 61.5,279.5 56.5,279.5C 56.5,274.5 56.5,269.5 56.5,264.5 Z"/></g>
<g><path style="opacity:1" fill="#fdfdfd" d="M 57.5,266.5 C 61.5,266.5 65.5,266.5 69.5,266.5C 69.5,270.167 69.5,273.833 69.5,277.5C 65.5,277.5 61.5,277.5 57.5,277.5C 57.5,273.833 57.5,270.167 57.5,266.5 Z"/></g>
<g><path style="opacity:1" fill="#d0d0d0" d="M 73.5,224.5 C 73.5,225.167 73.8333,225.5 74.5,225.5C 73.5701,229.4 73.2367,233.4 73.5,237.5C 77.97,238.486 82.6367,238.819 87.5,238.5C 87.9377,239.506 88.6043,239.506 89.5,238.5C 94.5,238.5 99.5,238.5 104.5,238.5C 105.633,246.421 105.8,254.421 105,262.5C 96.7423,263.16 88.4089,263.493 80,263.5C 71.5911,263.493 63.2577,263.16 55,262.5C 54.3333,254.833 54.3333,247.167 55,239.5C 55.3826,238.944 55.8826,238.611 56.5,238.5C 61.5947,238.779 66.5947,238.445 71.5,237.5C 72.2195,233.746 72.8861,229.413 73.5,224.5 Z"/></g>
<g><path style="opacity:1" fill="#dadada" d="M 151.5,253.5 C 155.394,253.11 159.06,253.777 162.5,255.5C 162.001,258.417 162.001,261.584 162.5,265C 161.225,267.071 159.391,268.571 157,269.5C 154.521,269.595 152.021,268.929 149.5,267.5C 148.92,263.19 148.586,258.857 148.5,254.5C 149.791,254.737 150.791,254.404 151.5,253.5 Z"/></g>
<g><path style="opacity:1" fill="#fcfcfc" d="M 150.5,255.5 C 153.833,255.5 157.167,255.5 160.5,255.5C 161.11,259.635 160.277,263.301 158,266.5C 155.923,265.622 153.59,265.622 151,266.5C 150.501,262.848 150.335,259.182 150.5,255.5 Z"/></g>
<g><path style="opacity:1" fill="#d5d5d5" d="M 152.5,234.5 C 154.049,234.736 155.549,234.736 157,234.5C 160.174,236.25 159.841,237.583 156,238.5C 154.606,236.598 152.773,236.265 150.5,237.5C 150.5,241.167 150.5,244.833 150.5,248.5C 153.833,248.5 157.167,248.5 160.5,248.5C 160.334,244.486 160.501,240.486 161,236.5C 161.692,237.025 162.192,237.692 162.5,238.5C 162.434,241.034 162.434,243.534 162.5,246C 161.929,247.205 161.262,248.372 160.5,249.5C 157.274,249.953 153.941,249.953 150.5,249.5C 149.77,247.659 149.103,245.825 148.5,244C 149.239,241.765 149.239,239.765 148.5,238C 150.093,237.051 151.426,235.885 152.5,234.5 Z"/></g>
<g><path style="opacity:1" fill="#fefefe" d="M 59.5,239.5 C 74.5649,240.77 89.0649,240.77 103,239.5C 104.462,246.658 104.962,253.992 104.5,261.5C 88.5,261.5 72.5,261.5 56.5,261.5C 56.8122,254.578 56.4788,247.744 55.5,241C 57.0581,240.79 58.3915,240.29 59.5,239.5 Z"/></g>
<g><path style="opacity:1" fill="#9e9e9e" d="M 87.5,238.5 C 82.6367,238.819 77.97,238.486 73.5,237.5C 77.8333,237.5 82.1667,237.5 86.5,237.5C 86.5,233.5 86.5,229.5 86.5,225.5C 82.5,225.5 78.5,225.5 74.5,225.5C 73.8333,225.5 73.5,225.167 73.5,224.5C 77.97,223.514 82.6367,223.181 87.5,223.5C 87.5,228.5 87.5,233.5 87.5,238.5 Z"/></g>
<g><path style="opacity:1" fill="#a0a0a0" d="M 71.5,237.5 C 66.5947,238.445 61.5947,238.779 56.5,238.5C 56.5,233.5 56.5,228.5 56.5,223.5C 61.5,223.5 66.5,223.5 71.5,223.5C 71.5,228.167 71.5,232.833 71.5,237.5 Z"/></g>
<g><path style="opacity:1" fill="#acacac" d="M 104.5,238.5 C 99.5,238.5 94.5,238.5 89.5,238.5C 89.5,233.5 89.5,228.5 89.5,223.5C 94.5,223.5 99.5,223.5 104.5,223.5C 104.5,228.5 104.5,233.5 104.5,238.5 Z"/></g>
<g><path style="opacity:1" fill="#eaeaea" d="M 127.5,227.5 C 134.167,227.5 140.833,227.5 147.5,227.5C 147.667,243.837 147.5,260.17 147,276.5C 140.256,277.479 133.422,277.812 126.5,277.5C 126.182,260.756 126.515,244.089 127.5,227.5 Z"/></g>
<g><path style="opacity:1" fill="#fefffe" d="M 128.5,229.5 C 134.167,229.5 139.833,229.5 145.5,229.5C 145.5,244.833 145.5,260.167 145.5,275.5C 139.833,275.5 134.167,275.5 128.5,275.5C 128.5,260.167 128.5,244.833 128.5,229.5 Z"/></g>
<g><path style="opacity:1" fill="#fcfcfc" d="M 90.5,225.5 C 94.5,225.5 98.5,225.5 102.5,225.5C 102.5,229.5 102.5,233.5 102.5,237.5C 98.5,237.5 94.5,237.5 90.5,237.5C 90.5,233.5 90.5,229.5 90.5,225.5 Z"/></g>
<g><path style="opacity:1" fill="#fafafa" d="M 74.5,225.5 C 78.5,225.5 82.5,225.5 86.5,225.5C 86.5,229.5 86.5,233.5 86.5,237.5C 82.1667,237.5 77.8333,237.5 73.5,237.5C 73.2367,233.4 73.5701,229.4 74.5,225.5 Z"/></g>
<g><path style="opacity:1" fill="#fcfcfc" d="M 58.5,225.5 C 62.1667,225.5 65.8333,225.5 69.5,225.5C 69.5,229.5 69.5,233.5 69.5,237.5C 65.5,237.5 61.5,237.5 57.5,237.5C 57.2367,233.4 57.5701,229.4 58.5,225.5 Z"/></g>
<g><path style="opacity:1" fill="#949494" d="M 111.5,203.5 C 112.274,202.853 113.274,202.52 114.5,202.5C 116.319,202.342 117.652,203.009 118.5,204.5C 116.653,205.83 115.153,205.497 114,203.5C 113.667,204.167 113.333,204.833 113,205.5C 112.722,204.584 112.222,203.918 111.5,203.5 Z"/></g>
<g><path style="opacity:1" fill="#bdbdbd" d="M 105.5,201.5 C 109.138,200.737 110.638,202.07 110,205.5C 105.415,207.413 103.915,206.079 105.5,201.5 Z"/></g>
<g><path style="opacity:1" fill="#ededed" d="M 115.5,146.5 C 116.684,147.688 116.684,148.855 115.5,150C 152.165,150.5 188.832,150.667 225.5,150.5C 225.833,151.167 226.167,151.833 226.5,152.5C 210.497,152.333 194.497,152.5 178.5,153C 177.903,154.889 177.569,156.722 177.5,158.5C 184.167,159.167 190.833,159.833 197.5,160.5C 197.192,161.308 196.692,161.975 196,162.5C 190.333,162.167 184.667,161.833 179,161.5C 178.5,162 178,162.5 177.5,163C 177.807,169.027 177.807,174.86 177.5,180.5C 177.167,179.833 176.833,179.167 176.5,178.5C 175.234,173.399 175.234,168.233 176.5,163C 175.874,162.25 175.374,161.416 175,160.5C 174.259,161.641 173.425,161.641 172.5,160.5C 171.808,161.025 171.308,161.692 171,162.5C 170.502,159.183 170.335,155.85 170.5,152.5C 151.833,152.5 133.167,152.5 114.5,152.5C 114.542,159.436 114.209,165.77 113.5,171.5C 113.214,166.357 113.214,161.857 113.5,158C 112.139,156.416 111.472,154.582 111.5,152.5C 105.251,152.614 99.2512,152.614 93.5,152.5C 94.2344,151.122 94.9011,149.622 95.5,148C 93.2053,147.016 93.5386,146.183 96.5,145.5C 102.676,145.34 109.009,145.673 115.5,146.5 Z"/></g>
<g><path style="opacity:1" fill="#fcfcfc" d="M 229.5,145.5 C 251.551,146.268 273.051,146.268 294,145.5C 296.157,146.385 296.99,148.052 296.5,150.5C 273.75,150.219 251.083,150.219 228.5,150.5C 228.366,148.708 228.699,147.042 229.5,145.5 Z"/></g>
<g><path style="opacity:1" fill="#fcfcfc" d="M 225.5,150.5 C 188.832,150.667 152.165,150.5 115.5,150C 116.684,148.855 116.684,147.688 115.5,146.5C 151.468,146.229 187.801,145.895 224.5,145.5C 225.452,147.045 225.785,148.712 225.5,150.5 Z"/></g>
<g><path style="opacity:1" fill="#262626" d="M 48.5,134.5 C 47.1667,134.5 45.8333,134.5 44.5,134.5C 44.5,133.167 44.5,131.833 44.5,130.5C 48.7404,128.74 50.0737,130.073 48.5,134.5 Z"/></g>
<g><path style="opacity:1" fill="#f1f1f1" d="M 298.5,78.5 C 299.833,78.5 301.167,78.5 302.5,78.5C 303.232,94.8349 303.565,111.002 303.5,127C 303.138,128.225 302.638,129.391 302,130.5C 301,129.167 300,129.167 299,130.5C 298.5,113.17 298.333,95.8365 298.5,78.5 Z"/></g>
<g><path style="opacity:1" fill="#303030" d="M 48.5,74.5 C 50.1734,77.1417 49.6734,79.1417 47,80.5C 45.699,80.3613 44.8656,79.6946 44.5,78.5C 44.5,77.5 44.5,76.5 44.5,75.5C 45.7079,74.7659 47.0413,74.4326 48.5,74.5 Z"/></g>
<g><path style="opacity:1" fill="#b9b9b9" d="M 112.5,33.5 C 167.167,33.5 221.833,33.5 276.5,33.5C 276.5,34.1667 276.5,34.8333 276.5,35.5C 267.773,35.5607 259.107,35.5607 250.5,35.5C 249.507,40.1196 249.173,44.7863 249.5,49.5C 249.167,49.5 248.833,49.5 248.5,49.5C 248.827,44.7863 248.493,40.1196 247.5,35.5C 245.17,37.6672 242.503,39.3338 239.5,40.5C 238.304,40.1543 238.304,39.6543 239.5,39C 241.332,38.2515 242.999,37.2515 244.5,36C 237.327,35.593 230.327,35.4263 223.5,35.5C 222.507,40.1196 222.173,44.7863 222.5,49.5C 222.167,49.5 221.833,49.5 221.5,49.5C 221.827,44.7863 221.493,40.1196 220.5,35.5C 216.552,34.865 212.552,34.5317 208.5,34.5C 195.527,34.8511 182.527,35.0178 169.5,35C 167.593,39.5184 166.926,44.3517 167.5,49.5C 167.167,49.5 166.833,49.5 166.5,49.5C 166.827,44.7863 166.493,40.1196 165.5,35.5C 164.158,36.9023 163.324,36.5689 163,34.5C 156.333,35.1667 149.667,35.8333 143,36.5C 142.586,36.0426 142.086,35.7093 141.5,35.5C 140.507,40.1196 140.173,44.7863 140.5,49.5C 139.167,49.5 137.833,49.5 136.5,49.5C 135.571,48.6851 134.571,47.8518 133.5,47C 135.5,47.3333 137.5,47.6667 139.5,48C 138.844,43.9619 138.344,39.7953 138,35.5C 137.311,36.3567 136.478,37.0233 135.5,37.5C 134.304,37.1543 134.304,36.6543 135.5,36C 128.19,35.6066 121.023,35.4399 114,35.5C 113.501,40.1548 113.334,44.8215 113.5,49.5C 116.583,50.229 120.25,50.8957 124.5,51.5C 120.167,51.5 115.833,51.5 111.5,51.5C 111.5,45.8333 111.5,40.1667 111.5,34.5C 112.167,34.5 112.5,34.1667 112.5,33.5 Z"/></g>
<g><path style="opacity:1" fill="#fdfdfd" d="M 111.5,34.5 C 111.5,40.1667 111.5,45.8333 111.5,51.5C 115.833,51.5 120.167,51.5 124.5,51.5C 175.336,51.8322 226.003,51.4989 276.5,50.5C 277.167,45.3187 277.833,39.9853 278.5,34.5C 284.07,34.6937 289.57,34.6937 295,34.5C 295.75,35.1258 296.584,35.6258 297.5,36C 296.425,72.9063 296.425,108.906 297.5,144C 223.93,144.168 150.43,144.668 77,145.5C 66.5821,144.513 56.0821,144.18 45.5,144.5C 45.5,141.5 45.5,138.5 45.5,135.5C 46.791,135.737 47.791,135.404 48.5,134.5C 50.0737,130.073 48.7404,128.74 44.5,130.5C 42.9582,131.301 41.2915,131.634 39.5,131.5C 39.5,113.833 39.5,96.1667 39.5,78.5C 41.1667,78.5 42.8333,78.5 44.5,78.5C 44.8656,79.6946 45.699,80.3613 47,80.5C 49.6734,79.1417 50.1734,77.1417 48.5,74.5C 47.791,73.596 46.791,73.2627 45.5,73.5C 44.9054,70.6537 44.9054,67.6537 45.5,64.5C 67.8358,64.6666 90.1692,64.5 112.5,64C 113.626,60.2564 113.793,56.423 113,52.5C 112.5,53 112,53.5 111.5,54C 111.888,57.1402 111.888,60.1402 111.5,63C 89.0187,63.9876 66.6853,63.6543 44.5,62C 45.3269,53.2659 45.3269,44.5993 44.5,36C 45.0253,35.3076 45.6919,34.8076 46.5,34.5C 67.997,35.003 89.6636,35.003 111.5,34.5 Z"/></g>
<g><path style="opacity:1" fill="#9e9e9e" d="M 282.5,131.5 C 283.239,131.369 283.906,131.536 284.5,132C 284.406,133.422 284.072,134.922 283.5,136.5C 281.296,135.218 280.962,133.551 282.5,131.5 Z"/></g>
<g><path style="opacity:1" fill="#c8c8c8" d="M 228.5,121.5 C 232.846,121.334 237.179,121.501 241.5,122C 245.876,127.365 245.21,132.032 239.5,136C 231.415,138.834 227.082,136.167 226.5,128C 226.338,125.498 227.005,123.331 228.5,121.5 Z"/></g>
<g><path style="opacity:1" fill="#c9c9c9" d="M 204.5,121.5 C 208.846,121.334 213.179,121.501 217.5,122C 213.514,122.499 209.514,122.666 205.5,122.5C 205.045,124.367 204.378,126.2 203.5,128C 204.239,130.254 205.239,132.421 206.5,134.5C 209.845,133.853 213.012,133.853 216,134.5C 218.389,131.401 218.889,128.067 217.5,124.5C 218.325,123.614 219.325,123.281 220.5,123.5C 221.567,135.275 216.567,139.442 205.5,136C 200.62,131.369 200.286,126.536 204.5,121.5 Z"/></g>
<g><path style="opacity:1" fill="#cbcbcb" d="M 183.5,121.5 C 187.846,121.334 192.179,121.501 196.5,122C 192.514,122.499 188.514,122.666 184.5,122.5C 184.045,124.367 183.378,126.2 182.5,128C 183.378,129.8 184.045,131.633 184.5,133.5C 188.182,133.665 191.848,133.499 195.5,133C 197.415,129.923 198.081,126.756 197.5,123.5C 198.086,123.709 198.586,124.043 199,124.5C 199.167,125.833 199.333,127.167 199.5,128.5C 198.979,130.924 198.312,133.257 197.5,135.5C 192.818,136.703 188.151,136.703 183.5,135.5C 179.572,130.739 179.572,126.073 183.5,121.5 Z"/></g>
<g><path style="opacity:1" fill="#cccccc" d="M 160.5,120.5 C 164.884,120.174 169.217,120.508 173.5,121.5C 169.555,122.491 165.555,122.824 161.5,122.5C 161.5,126.167 161.5,129.833 161.5,133.5C 165.158,134.039 168.658,134.373 172,134.5C 173.096,130.976 173.929,127.31 174.5,123.5C 175.086,123.709 175.586,124.043 176,124.5C 177.246,136.028 172.413,139.861 161.5,136C 157.919,131.081 157.586,125.915 160.5,120.5 Z"/></g>
<g><path style="opacity:1" fill="#303030" d="M 288.5,129.5 C 292.138,128.737 293.638,130.07 293,133.5C 288.415,135.413 286.915,134.079 288.5,129.5 Z"/></g>
<g><path style="opacity:1" fill="#d4d4d4" d="M 139.5,121.5 C 144.739,120.963 149.739,121.63 154.5,123.5C 154.833,125 155.167,126.5 155.5,128C 154.896,130.887 154.229,133.72 153.5,136.5C 151.208,136.244 149.041,136.577 147,137.5C 144.667,136.833 142.333,136.167 140,135.5C 136.84,130.861 136.674,126.195 139.5,121.5 Z"/></g>
<g><path style="opacity:1" fill="#fafafa" d="M 229.5,122.5 C 233.437,122.207 237.27,122.54 241,123.5C 241.837,125.351 242.671,127.184 243.5,129C 241.959,130.579 240.792,132.413 240,134.5C 236.801,134.446 233.634,134.446 230.5,134.5C 226.879,130.687 226.546,126.687 229.5,122.5 Z"/></g>
<g><path style="opacity:1" fill="#fefefe" d="M 140.5,122.5 C 144.5,122.5 148.5,122.5 152.5,122.5C 152.5,126.167 152.5,129.833 152.5,133.5C 148.399,134.366 144.399,134.366 140.5,133.5C 140.5,129.833 140.5,126.167 140.5,122.5 Z"/></g>
<g><path style="opacity:1" fill="#969696" d="M 229.5,105.5 C 230.239,105.369 230.906,105.536 231.5,106C 231.406,107.422 231.072,108.922 230.5,110.5C 230.168,109.211 229.834,107.545 229.5,105.5 Z"/></g>
<g><path style="opacity:1" fill="#3c3c3c" d="M 221.5,101.5 C 225.35,101.701 226.35,103.534 224.5,107C 219.289,107.546 218.289,105.713 221.5,101.5 Z"/></g>
<g><path style="opacity:1" fill="#979797" d="M 145.5,102.5 C 146.5,102.5 147.5,102.5 148.5,102.5C 148.5,103.833 148.5,105.167 148.5,106.5C 147.5,106.5 146.5,106.5 145.5,106.5C 145.5,105.167 145.5,103.833 145.5,102.5 Z"/></g>
<g><path style="opacity:1" fill="#afafaf" d="M 85.5,97.5 C 87.1667,97.5 88.8333,97.5 90.5,97.5C 90.5,98.8333 90.5,100.167 90.5,101.5C 88.8333,101.5 87.1667,101.5 85.5,101.5C 85.5,100.167 85.5,98.8333 85.5,97.5 Z"/></g>
<g><path style="opacity:1" fill="#b2b2b2" d="M 91.5,97.5 C 93.8333,97.5 96.1667,97.5 98.5,97.5C 98.67,98.8221 98.3366,99.9887 97.5,101C 95.5273,101.495 93.5273,101.662 91.5,101.5C 91.5,100.167 91.5,98.8333 91.5,97.5 Z"/></g>
<g><path style="opacity:1" fill="#d9d9d9" d="M 125.5,76.5 C 166.833,76.5 208.167,76.5 249.5,76.5C 249.666,82.8421 249.5,89.1754 249,95.5C 248.501,89.5092 248.334,83.5092 248.5,77.5C 208.299,77.8235 167.965,77.9902 127.5,78C 126.511,91.0872 126.177,104.254 126.5,117.5C 167.167,117.5 207.833,117.5 248.5,117.5C 249.045,113.828 249.378,114.162 249.5,118.5C 208.167,118.5 166.833,118.5 125.5,118.5C 125.5,104.5 125.5,90.5 125.5,76.5 Z"/></g>
<g><path style="opacity:1" fill="#848484" d="M 53.5,70.5 C 55.4646,70.9483 55.7979,71.9483 54.5,73.5C 53.6143,72.675 53.281,71.675 53.5,70.5 Z"/></g>
<g><path style="opacity:1" fill="#c8c8c8" d="M 167.5,58.5 C 170.009,58.7167 172.676,59.5501 175.5,61C 179.317,65.6971 179.317,70.3637 175.5,75C 171.129,75.8275 166.795,75.6609 162.5,74.5C 157.422,67.0217 159.089,61.6883 167.5,58.5 Z"/></g>
<g><path style="opacity:1" fill="#c7c7c7" d="M 188.5,58.5 C 191.009,58.7167 193.676,59.5501 196.5,61C 200.317,65.6971 200.317,70.3637 196.5,75C 192.129,75.8275 187.795,75.6609 183.5,74.5C 178.649,67.4656 180.315,62.1323 188.5,58.5 Z"/></g>
<g><path style="opacity:1" fill="#f9f9f9" d="M 184.5,62.5 C 195.327,59.4959 199.161,63.1626 196,73.5C 185.046,76.8462 181.213,73.1795 184.5,62.5 Z"/></g>
<g><path style="opacity:1" fill="#f9f9f9" d="M 163.5,62.5 C 175.084,59.744 178.75,63.744 174.5,74.5C 170.833,74.5 167.167,74.5 163.5,74.5C 163.703,72.6096 163.037,71.1096 161.5,70C 161.563,67.5934 162.23,65.0934 163.5,62.5 Z"/></g>
<g><path style="opacity:1" fill="#cccccc" d="M 211.5,58.5 C 214.272,58.7054 217.105,59.7054 220,61.5C 224.314,74.5195 219.814,79.0195 206.5,75C 201.372,67.3309 203.039,61.8309 211.5,58.5 Z"/></g>
<g><path style="opacity:1" fill="#fafafa" d="M 207.5,62.5 C 211.167,62.5 214.833,62.5 218.5,62.5C 219.129,64.4649 219.796,66.4649 220.5,68.5C 219.796,70.5351 219.129,72.5351 218.5,74.5C 214.894,74.7892 211.394,74.4558 208,73.5C 206.489,69.8203 206.323,66.1536 207.5,62.5 Z"/></g>
<g><path style="opacity:1" fill="#cdcdcd" d="M 232.5,58.5 C 240.222,59.5103 243.388,64.177 242,72.5C 241.167,73.3333 240.333,74.1667 239.5,75C 235.5,75.6667 231.5,75.6667 227.5,75C 223.356,69.7907 223.689,64.7907 228.5,60C 230.058,59.79 231.391,59.29 232.5,58.5 Z"/></g>
<g><path style="opacity:1" fill="#fcfcfc" d="M 228.5,62.5 C 231.85,62.335 235.183,62.5017 238.5,63C 239.167,64.3333 240.167,65.3333 241.5,66C 241.112,67.5252 241.112,69.1918 241.5,71C 237.561,72.9224 233.394,74.089 229,74.5C 227.179,70.6046 227.012,66.6046 228.5,62.5 Z"/></g>
<g><path style="opacity:1" fill="#c8c8c8" d="M 143.5,58.5 C 153.532,59.7269 156.199,65.2269 151.5,75C 138.549,78.5202 134.049,74.0202 138,61.5C 139.876,60.3913 141.709,59.3913 143.5,58.5 Z"/></g>
<g><path style="opacity:1" fill="#f9f9f9" d="M 139.5,62.5 C 151.084,59.744 154.75,63.744 150.5,74.5C 146.833,74.5 143.167,74.5 139.5,74.5C 138.871,72.5351 138.204,70.5351 137.5,68.5C 137.719,66.3069 138.385,64.3069 139.5,62.5 Z"/></g>
<g><path style="opacity:1" fill="#767676" d="M 113.5,49.5 C 121.167,49.5 128.833,49.5 136.5,49.5C 137.833,49.5 139.167,49.5 140.5,49.5C 149.167,49.5 157.833,49.5 166.5,49.5C 166.833,49.5 167.167,49.5 167.5,49.5C 185.5,49.5 203.5,49.5 221.5,49.5C 221.833,49.5 222.167,49.5 222.5,49.5C 231.167,49.5 239.833,49.5 248.5,49.5C 248.833,49.5 249.167,49.5 249.5,49.5C 257.5,49.5 265.5,49.5 273.5,49.5C 274.791,49.2627 275.791,49.596 276.5,50.5C 226.003,51.4989 175.336,51.8322 124.5,51.5C 120.25,50.8957 116.583,50.229 113.5,49.5 Z"/></g>
<g><path style="opacity:1" fill="#f8f8f8" d="M 276.5,35.5 C 276.133,40.3924 275.133,45.0591 273.5,49.5C 265.5,49.5 257.5,49.5 249.5,49.5C 249.173,44.7863 249.507,40.1196 250.5,35.5C 259.107,35.5607 267.773,35.5607 276.5,35.5 Z"/></g>
<g><path style="opacity:1" fill="#f9f9f9" d="M 248.5,49.5 C 239.833,49.5 231.167,49.5 222.5,49.5C 222.173,44.7863 222.507,40.1196 223.5,35.5C 230.327,35.4263 237.327,35.593 244.5,36C 242.999,37.2515 241.332,38.2515 239.5,39C 238.304,39.6543 238.304,40.1543 239.5,40.5C 242.503,39.3338 245.17,37.6672 247.5,35.5C 248.493,40.1196 248.827,44.7863 248.5,49.5 Z"/></g>
<g><path style="opacity:1" fill="#f4f4f4" d="M 166.5,49.5 C 157.833,49.5 149.167,49.5 140.5,49.5C 140.173,44.7863 140.507,40.1196 141.5,35.5C 142.086,35.7093 142.586,36.0426 143,36.5C 149.667,35.8333 156.333,35.1667 163,34.5C 163.324,36.5689 164.158,36.9023 165.5,35.5C 166.493,40.1196 166.827,44.7863 166.5,49.5 Z"/></g>
<g><path style="opacity:1" fill="#f9f9f9" d="M 136.5,49.5 C 128.833,49.5 121.167,49.5 113.5,49.5C 113.334,44.8215 113.501,40.1548 114,35.5C 121.023,35.4399 128.19,35.6066 135.5,36C 134.304,36.6543 134.304,37.1543 135.5,37.5C 136.478,37.0233 137.311,36.3567 138,35.5C 138.344,39.7953 138.844,43.9619 139.5,48C 137.5,47.6667 135.5,47.3333 133.5,47C 134.571,47.8518 135.571,48.6851 136.5,49.5 Z"/></g>
<g><path style="opacity:1" fill="#f1f1f1" d="M 221.5,49.5 C 203.5,49.5 185.5,49.5 167.5,49.5C 166.926,44.3517 167.593,39.5184 169.5,35C 182.527,35.0178 195.527,34.8511 208.5,34.5C 212.552,34.5317 216.552,34.865 220.5,35.5C 221.493,40.1196 221.827,44.7863 221.5,49.5 Z"/></g>
<g><path style="opacity:1" fill="#dbdbdb" d="M 112.5,33.5 C 112.5,34.1667 112.167,34.5 111.5,34.5C 89.6636,35.003 67.997,35.003 46.5,34.5C 45.6919,34.8076 45.0253,35.3076 44.5,36C 45.3269,44.5993 45.3269,53.2659 44.5,62C 66.6853,63.6543 89.0187,63.9876 111.5,63C 111.888,60.1402 111.888,57.1402 111.5,54C 112,53.5 112.5,53 113,52.5C 113.793,56.423 113.626,60.2564 112.5,64C 90.1692,64.5 67.8358,64.6666 45.5,64.5C 44.9054,67.6537 44.9054,70.6537 45.5,73.5C 46.791,73.2627 47.791,73.596 48.5,74.5C 47.0413,74.4326 45.7079,74.7659 44.5,75.5C 43.813,61.5304 43.813,47.697 44.5,34C 67.1642,33.5 89.8309,33.3334 112.5,33.5 Z"/></g>
</svg>
